<svg width="20" height="20" viewBox="0 0 20 20" fill="none" xmlns="http://www.w3.org/2000/svg">
<path fill-rule="evenodd" clip-rule="evenodd" d="M14.4852 4.50796C14.0775 4.50796 13.71 4.75355 13.5539 5.13022C13.3979 5.50688 13.4842 5.94044 13.7724 6.22873C14.0607 6.51701 14.4943 6.60325 14.871 6.44723C15.2476 6.29121 15.4932 5.92366 15.4932 5.51596C15.4932 4.95926 15.0419 4.50796 14.4852 4.50796ZM18.3492 6.54076C18.3329 5.84381 18.2023 5.15426 17.9628 4.49956C17.7492 3.93939 17.4168 3.43216 16.9884 3.01276C16.5725 2.5822 16.064 2.25187 15.5016 2.04676C14.8486 1.79994 14.1583 1.66642 13.4604 1.65196C12.57 1.60156 12.2844 1.60156 9.99961 1.60156C7.71481 1.60156 7.42921 1.60156 6.53881 1.65196C5.8409 1.66642 5.15058 1.79994 4.49761 2.04676C3.93622 2.25395 3.42823 2.58399 3.01081 3.01276C2.58025 3.42871 2.24992 3.93713 2.04481 4.49956C1.79798 5.15253 1.66447 5.84285 1.65001 6.54076C1.59961 7.43116 1.59961 7.71676 1.59961 10.0016C1.59961 12.2864 1.59961 12.572 1.65001 13.4624C1.66447 14.1603 1.79798 14.8506 2.04481 15.5036C2.24992 16.066 2.58025 16.5744 3.01081 16.9904C3.42823 17.4191 3.93622 17.7492 4.49761 17.9564C5.15058 18.2032 5.8409 18.3367 6.53881 18.3512C7.42921 18.4016 7.71481 18.4016 9.99961 18.4016C12.2844 18.4016 12.57 18.4016 13.4604 18.3512C14.1583 18.3367 14.8486 18.2032 15.5016 17.9564C16.064 17.7513 16.5725 17.4209 16.9884 16.9904C17.4187 16.5725 17.7514 16.0648 17.9628 15.5036C18.2023 14.8489 18.3329 14.1593 18.3492 13.4624C18.3492 12.572 18.3996 12.2864 18.3996 10.0016C18.3996 7.71676 18.3996 7.43116 18.3492 6.54076ZM16.8372 13.3616C16.8311 13.8948 16.7345 14.4231 16.5516 14.924C16.4175 15.2895 16.2021 15.6198 15.9216 15.89C15.6492 16.1676 15.3195 16.3826 14.9556 16.52C14.4547 16.7029 13.9264 16.7994 13.3932 16.8056C12.5532 16.8476 12.2424 16.856 10.0332 16.856C7.82401 16.856 7.51321 16.856 6.67321 16.8056C6.11956 16.8159 5.56827 16.7307 5.04361 16.5536C4.69567 16.4091 4.38115 16.1947 4.11961 15.9236C3.8408 15.6537 3.62808 15.3231 3.49801 14.9576C3.29293 14.4495 3.17918 13.9092 3.16201 13.3616C3.16201 12.5216 3.11161 12.2108 3.11161 10.0016C3.11161 7.79236 3.11161 7.48156 3.16201 6.64156C3.16577 6.09645 3.26529 5.55624 3.45601 5.04556C3.60389 4.69101 3.83087 4.37496 4.11961 4.12156C4.37481 3.83274 4.69021 3.60336 5.04361 3.44956C5.55563 3.2648 6.09529 3.16823 6.63961 3.16396C7.47961 3.16396 7.79041 3.11356 9.99961 3.11356C12.2088 3.11356 12.5196 3.11356 13.3596 3.16396C13.8928 3.17008 14.4211 3.26665 14.922 3.44956C15.3037 3.59123 15.6463 3.82155 15.9216 4.12156C16.1969 4.37959 16.412 4.69506 16.5516 5.04556C16.7383 5.55707 16.8349 6.09706 16.8372 6.64156C16.8792 7.48156 16.8876 7.79236 16.8876 10.0016C16.8876 12.2108 16.8792 12.5216 16.8372 13.3616ZM9.99961 5.69236C7.6208 5.697 5.69572 7.62834 5.69881 10.0072C5.7019 12.386 7.63199 14.3123 10.0108 14.3108C12.3896 14.3092 14.3172 12.3804 14.3172 10.0016C14.3195 8.85655 13.865 7.75791 13.0546 6.94905C12.2441 6.14018 11.1446 5.68789 9.99961 5.69236ZM9.99961 12.7988C8.45476 12.7988 7.20241 11.5464 7.20241 10.0016C7.20241 8.45671 8.45476 7.20436 9.99961 7.20436C11.5445 7.20436 12.7968 8.45671 12.7968 10.0016C12.7968 10.7434 12.5021 11.4549 11.9775 11.9795C11.453 12.5041 10.7415 12.7988 9.99961 12.7988Z" fill="#2F302C"/>
</svg>
