<svg width="20" height="20" viewBox="0 0 20 20" fill="none" xmlns="http://www.w3.org/2000/svg">
<path fill-rule="evenodd" clip-rule="evenodd" d="M17.4756 1.60156H2.52361C2.0133 1.60156 1.59961 2.01525 1.59961 2.52556V17.4776C1.59961 17.7226 1.69696 17.9576 1.87024 18.1309C2.04353 18.3042 2.27855 18.4016 2.52361 18.4016H10.5708V11.8916H8.38681V9.37156H10.5708V7.48156C10.4792 6.58336 10.7893 5.69061 11.4179 5.04255C12.0465 4.39449 12.9294 4.05738 13.83 4.12156C14.4838 4.11754 15.1373 4.15119 15.7872 4.22236V6.49036H14.4516C13.3932 6.49036 13.1916 6.99436 13.1916 7.72516V9.34636H15.7116L15.384 11.8664H13.1916V18.4016H17.4756C17.7207 18.4016 17.9557 18.3042 18.129 18.1309C18.3023 17.9576 18.3996 17.7226 18.3996 17.4776V2.52556C18.3996 2.2805 18.3023 2.04548 18.129 1.8722C17.9557 1.69891 17.7207 1.60156 17.4756 1.60156Z" fill="#2F302C"/>
</svg>
